<?xml version="1.0" encoding="utf-8"?>
<!-- Generator: Adobe Illustrator 24.0.0, SVG Export Plug-In . SVG Version: 6.00 Build 0)  -->
<svg version="1.1" xmlns="http://www.w3.org/2000/svg" xmlns:xlink="http://www.w3.org/1999/xlink" x="0px" y="0px"
	 viewBox="0 0 2235 1228" style="enable-background:new 0 0 2235 1228;" xml:space="preserve">
<style type="text/css">
	.st0{display:none;}
	.st1{fill:#8AC6D0;}
	.st2{fill:#554971;}
	.st3{fill:#41385E;}
	.st4{fill:#AFABC4;}
	.st5{fill:#EDEAF9;}
	.st6{fill:#728EAA;}
	.st7{fill:#63768D;}
	.st8{fill:none;}
	.st9{fill:#7E94A8;}
	.st10{fill:none;stroke:#554971;stroke-miterlimit:10;}
	.st11{display:inline;}
	.st12{clip-path:url(#SVGID_2_);}
	.st13{fill:#1B181D;}
	.st14{display:inline;fill:#183651;}
	.st15{display:inline;fill:#918F8F;}
	.st16{clip-path:url(#SVGID_4_);}
	.st17{fill:#6E6B6C;}
	.st18{display:inline;fill:#15151E;}
	.st19{display:inline;fill:#FFFFFF;}
	.st20{display:inline;fill:#333650;}
	.st21{display:inline;fill:#ED3947;}
	.st22{display:inline;fill:#80CC28;}
	.st23{display:inline;fill:#EBB72E;}
	.st24{display:inline;fill:#3BBEC5;}
	.st25{display:inline;fill:#00ADEF;}
	.st26{display:inline;fill:#352F38;}
	.st27{display:inline;fill:#354B67;}
	.st28{display:inline;fill:#2F2D3B;}
	.st29{display:inline;fill:#4E4D67;}
	.st30{display:inline;fill:#F05D5E;}
	.st31{display:inline;fill:#62CBCD;}
	.st32{display:inline;fill:#33BDF2;}
	.st33{display:inline;fill:#99D64B;}
	.st34{fill:#36213E;}
	.st35{opacity:0.4;fill:#554971;enable-background:new    ;}
	.st36{fill-rule:evenodd;clip-rule:evenodd;fill:#41385E;}
	.st37{clip-path:url(#SVGID_6_);}
	.st38{fill:#E44D26;}
	.st39{display:inline;fill:#F16529;}
	.st40{display:inline;fill:#EBEBEB;}
	.st41{clip-path:url(#SVGID_8_);}
	.st42{clip-path:url(#SVGID_10_);}
	.st43{clip-path:url(#SVGID_12_);}
	.st44{clip-path:url(#SVGID_14_);}
	.st45{clip-path:url(#SVGID_16_);}
	.st46{fill:#264DE4;}
	.st47{display:inline;fill:#2965F1;}
	.st48{clip-path:url(#SVGID_18_);}
	.st49{clip-path:url(#SVGID_20_);}
	.st50{clip-path:url(#SVGID_22_);}
	.st51{clip-path:url(#SVGID_24_);}
	.st52{fill:#F7DF1E;}
</style>
<g id="Capa_3" class="st0">
</g>
<g id="Capa_18">
	<path class="st1" d="M575.9,1228h1170.6c0,0,225.1-212.3-169.5-395.7c0,0-52.6-39.8-52.6-181.2c0-4.4-87.9-316.4-528.4-158.6
		S690.6,783.4,690.6,783.4s168.8,100.1-17.5,133c-186.3,32.9-184.9,195.1-160,244.1c24.8,49,59.2,67.6,59.2,67.6H575.9z"/>
</g>
<g id="Capa_5" class="st0">
	
		<image style="display:inline;overflow:visible;" width="1536" height="2048" xlink:href="../proyectos/svg/345050729_6714251031919805_7826243089732168018_n.jpg"  transform="matrix(4.238225e-17 -0.6922 0.6922 4.238225e-17 398.7336 1203.0748)">
	</image>
</g>
<g id="Capa_10">
	<path class="st2" d="M1010.2,816.4c0,0,72.7-169.5,236.4-141.4c0,0,196.2-37.9,179.4,174.9c-16.8,212.8-98.3,42.2-98.3,42.2
		l-120.9-139.7"/>
</g>
<g id="Capa_9">
	<path class="st3" d="M1328.9,883.5c0,0,100.6-27,98.1-65.8c-3.1-47.1,17,128.6,4.2,169.2l-15,16.1l-6.2-20.1l-0.7,27.8
		c0,0-79.6,32.2-82.9,22.3C1323,1023,1328.9,883.5,1328.9,883.5z"/>
	<path class="st3" d="M1090.3,743.8c0,0-58.1,14.7-80.7,73.2c0,0-36.2,112.5,9.5,291.4c0,0,51.2-90.1,65.1-89.5
		C1098,1019.4,1090.3,743.8,1090.3,743.8"/>
</g>
<g id="Capa_8">
	<path class="st4" d="M1204.7,1042.2c0,0-1.1,22.7-4,24.1s-21.2,14.6-21.2,14.6l21.9,27.4l50.4-10.2l19.7-79.3L1204.7,1042.2z"/>
</g>
<g id="Capa_17">
	<path class="st5" d="M841.9,1057.6l13.5-94.1l27-69.8c0,0,9.9-12.8,16.4,1.8L882.4,950l34.3-61.4c0,0,8-9.1,11,2.2l-20.5,56.7
		c0,0,35.1-54.8,54.4-69.8c0,0,23,2.9-5.5,36.5l-15.3,21.9l21.9-6.9c0,0,18.6,5.8,23,20.5s3.3,45.3,3.3,45.3s-3.7,7.3-12.4,4.7
		c-8.8-2.6-6.2-34-6.2-34s-4.4-8-8.8-12.8c-4.4-4.7-25.2,19-25.2,19l-2.9,20.1c0,0-2.6,10.4,1.1,12.1c3.7,1.8,13.6-6.1,28.1-6.1h8.4
		l15,3.1c0,0,4.7,0.7,1.1,8c0,0-20.8,7.5-27.4,14.9c0,0,3.3,26-35.1,45.8c0,0,25.9,73.8,41.3,93.5c15.3,19.7-80.6,46-80.6,46
		s-54.3-109.9-43.7-150.1"/>
	<path class="st4" d="M617.5,1228"/>
</g>
<g id="Capa_14">
	<path class="st6" d="M1198.5,1069.1c0,0-16.5-12.8-58.9-4c-42.4,8.8-23,70.9-23,70.9l-29.6,88.8l248.4-37.6l-10.1-26.7
		c0,0,5.4-104.1,53.2-104.5c0,0-72-29.5-70.5-21.1s-62.5,55.8-62.5,55.8S1201.9,1109.3,1198.5,1069.1z"/>
</g>
<g id="Capa_13">
	<path class="st7" d="M962.4,1155.6c0,0-20.5,48.6-80,49.4l16.4,23H1094c0,0,6.2-61.7,30.7-85.1v-12.1c0,0-7.3-49.3,15-65.8
		c0,0-39.5-4.7-141.8,125.3"/>
</g>
<g id="Capa_16">
	<path class="st5" d="M1218.6,1179.8c-66.9-1.2-71.3,2.2-71.3,2.2s-32.9,7.3-58.8,23.4c-25.9,16.1-24.5,11-31.4,14.2
		c-6.9,3.3-7.3,8.4-7.3,8.4h167C1216.7,1228,1231,1180,1218.6,1179.8z"/>
</g>
<g id="Capa_15">
	<path class="st6" d="M1378.6,1055.9"/>
	<line class="st8" x1="898.9" y1="1228" x2="1532.4" y2="1228"/>
	<path class="st9" d="M1378.6,1055.9c0,0,100.1,34.3,108.5,172.1h-281.3c0,0-7.3-28.9,11-49.3l108.6-5.5
		C1325.3,1173.2,1317.9,1054.8,1378.6,1055.9z"/>
</g>
<g id="Capa_7">
	<path class="st5" d="M1032.2,859.7c0,0-53.3,262,242.6,183l56.6-36.5c0,0,122-3.3,83.7-136.3c0,0-25.6-61.7-83.3,28.5
		s-86.2-106.7-86.2-106.7l-142.1-25.2L1032.2,859.7z"/>
</g>
<g id="Capa_6">
	<path class="st2" d="M1065.8,766.6c0,0-47.9,61.4-46.8,98.3c0,0,42.7,27,104.9-78.6c0,0,63.9,69,119.5,81.7
		c0,0,36.9,41.1,26.7,117.5s-59.2,170.2-59.2,170.2l116.2-98.3c0,0,9.2-54.4,9.7-64.7c3.8-84.4,1.1-97-0.2-107
		c-4-30.3,11.8-107.8-88.8-145.4C1114.8,690.6,1065.8,766.6,1065.8,766.6z"/>
</g>
<g id="Capa_12">
	<path class="st1" d="M1180.6,1002.8L1180.6,1002.8c0,0,15.5,8.5,27.8,16c21.1,13,36.1-0.1,31.6-19.9c-1.4-6.3-5.8-12.2-14.6-14.4
		c-8.8-2.2-19.7,4.7-19.7,4.7"/>
	<g>
		<path class="st7" d="M1223.4,1004.1c-1.1-2.3-2.6-4.4-4.4-6.1c-1.7-1.8-3.8-3.3-6.1-4.1c-2.3-0.9-4.7-0.9-7.1-0.8
			c-2.4,0.1-4.8,0.7-7.4,1.3l-0.1-0.2c2.1-1.6,4.6-2.7,7.3-3.1c1.3-0.2,2.7-0.2,4.1,0.1c1.3,0.3,2.6,0.7,3.9,1.3
			c2.4,1.2,4.5,2.9,6.2,4.9c1.6,2,3,4.3,3.8,6.7L1223.4,1004.1z"/>
	</g>
</g>
<g id="Capa_11">
	<path class="st2" d="M1158.5,849.1c0,0,11.4,6.4,13.6,14.8c2.2,8.4-16.8,69.2,25.6,72.2c0,0,30.3-5.5,23-44
		c-7.3-38.5-25.2-42.6-25.2-42.6s-6-2.2-16.5,0c-12.7,2.7-17.9-4.7-20.1-4C1156.8,846.2,1158.5,849.1,1158.5,849.1z"/>
	<ellipse class="st7" cx="1247" cy="936.1" rx="21.2" ry="11.3"/>
	<ellipse class="st7" cx="1042.1" cy="945.2" rx="21.2" ry="11.3"/>
	<g>
		<path class="st2" d="M1031.9,899.2c1.4,0.7,2.8,1.2,4.2,1.6c0.7,0.2,1.4,0.4,2.2,0.5c0.7,0.1,1.4,0.3,2.2,0.4l2.2,0.3
			c0.7,0.1,1.5,0.1,2.2,0.2c0.7,0,1.5,0.1,2.2,0.1l2.2,0c5.9,0,11.8-0.4,17.7-1.1c1.5-0.1,3-0.4,4.4-0.6c1.5-0.2,3-0.4,4.4-0.6
			c2.9-0.5,5.9-0.9,8.9-1.5c3-0.6,6-1,8.9-1.5c3-0.5,6-1.1,9.1-1.4c-2.7,1.4-5.6,2.6-8.4,3.7c-2.8,1.1-5.8,2-8.7,3
			c-1.5,0.5-3,0.8-4.4,1.2c-1.5,0.4-3,0.7-4.5,1.1c-3,0.6-6.1,1.1-9.1,1.5c-6.1,0.7-12.4,0.9-18.6,0.1c-1.5-0.2-3.1-0.4-4.6-0.8
			c-0.8-0.2-1.5-0.3-2.3-0.6l-2.2-0.7c-0.7-0.2-1.5-0.6-2.2-0.9c-0.7-0.3-1.4-0.7-2.1-1.1C1034.2,901.3,1032.9,900.4,1031.9,899.2z"
			/>
	</g>
	<g>
		<path class="st2" d="M1139.6,1010.6c7.1-0.9,14.1-2.2,20.9-3.8c3.4-0.8,6.8-1.7,10.2-2.7c3.4-1,6.7-2.1,10-3.4
			c3.3-1.2,6.5-2.6,9.7-4.1c1.6-0.7,3.1-1.5,4.7-2.3c1.5-0.9,3.1-1.7,4.6-2.6c6.1-3.5,11.7-7.8,17.1-12.5
			c-4.2,5.8-9.5,10.9-15.4,15.1c-5.9,4.2-12.5,7.5-19.2,10.1c-3.4,1.2-6.8,2.4-10.4,3.3c-3.5,0.9-7,1.7-10.6,2.2
			C1154,1010.9,1146.8,1011.3,1139.6,1010.6z"/>
	</g>
	<path class="st10" d="M1224.8,1001.1"/>
</g>
<g id="Capa_1" class="st0">
	<g class="st11">
		<defs>
			<rect id="SVGID_1_" x="330.1" y="195.9" width="412.3" height="285.6"/>
		</defs>
		<clipPath id="SVGID_2_">
			<use xlink:href="#SVGID_1_"  style="overflow:visible;"/>
		</clipPath>
		<g class="st12">
			<path class="st13" d="M742.1,473.2c0,4.3-3.5,7.8-7.8,7.8H338c-4.3,0-7.8-3.5-7.8-7.8V203.8c0-4.3,3.5-7.8,7.8-7.8h396.3
				c4.3,0,7.8,3.5,7.8,7.8V473.2"/>
		</g>
	</g>
	<path class="st14" d="M725.4,460.6c0,1.4-1.1,2.6-2.6,2.6H349.4c-1.4,0-2.6-1.1-2.6-2.6V216.4c0-1.4,1.1-2.6,2.6-2.6h373.4
		c1.4,0,2.6,1.1,2.6,2.6V460.6"/>
	<path class="st15" d="M485,514.7h102.2v-33.6H485V514.7z"/>
	<g class="st11">
		<defs>
			<rect id="SVGID_3_" x="469.4" y="514.4" width="133.7" height="17.7"/>
		</defs>
		<clipPath id="SVGID_4_">
			<use xlink:href="#SVGID_3_"  style="overflow:visible;"/>
		</clipPath>
		<g class="st16">
			<path class="st17" d="M602.8,532.2H469.4v-17.6h133.4V532.2"/>
		</g>
	</g>
	<path class="st18" d="M373.7,455.4h324.9V236H373.7V455.4z"/>
	<path class="st19" d="M393.5,455.4h1.1V236h-1.1V455.4z"/>
	<path class="st20" d="M373.7,235.9h324.9v-18.1H373.7V235.9z"/>
	<path class="st21" d="M659.9,226.9c0,3.4-2.8,6.1-6.1,6.1c-3.4,0-6.1-2.8-6.1-6.1c0-3.4,2.8-6.1,6.1-6.1
		C657.2,220.7,659.9,223.5,659.9,226.9"/>
	<path class="st22" d="M676.1,226.9c0,3.4-2.7,6.1-6.1,6.1c-3.4,0-6.2-2.8-6.2-6.1c0-3.4,2.8-6.1,6.2-6.1
		C673.4,220.7,676.1,223.5,676.1,226.9"/>
	<path class="st23" d="M692.1,226.9c0,3.4-2.8,6.1-6.1,6.1c-3.4,0-6.1-2.8-6.1-6.1c0-3.4,2.8-6.1,6.1-6.1
		C689.4,220.7,692.1,223.5,692.1,226.9"/>
	<path class="st19" d="M378.5,244.4h10.8v-3.3h-10.8V244.4z"/>
	<path class="st19" d="M378.5,255.2h10.8v-3.3h-10.8V255.2z"/>
	<path class="st19" d="M378.5,266h10.8v-3.3h-10.8V266z"/>
	<path class="st19" d="M378.5,276.8h10.8v-3.3h-10.8V276.8z"/>
	<path class="st19" d="M378.5,287.6h10.8v-3.3h-10.8V287.6z"/>
	<path class="st19" d="M378.5,298.4h10.8v-3.3h-10.8V298.4z"/>
	<path class="st19" d="M378.5,309.2h10.8v-3.3h-10.8V309.2z"/>
	<path class="st19" d="M378.5,319.9h10.8v-3.3h-10.8V319.9z"/>
	<path class="st19" d="M378.5,330.7h10.8v-3.3h-10.8V330.7z"/>
	<path class="st19" d="M378.5,341.5h10.8v-3.3h-10.8V341.5z"/>
	<path class="st19" d="M378.5,352.3h10.8V349h-10.8V352.3z"/>
	<path class="st19" d="M378.5,363.1h10.8v-3.3h-10.8V363.1z"/>
	<path class="st19" d="M378.5,373.9h10.8v-3.3h-10.8V373.9z"/>
	<path class="st19" d="M378.5,384.7h10.8v-3.3h-10.8V384.7z"/>
	<path class="st19" d="M378.5,395.5h10.8v-3.3h-10.8V395.5z"/>
	<path class="st19" d="M378.5,406.3h10.8V403h-10.8V406.3z"/>
	<path class="st19" d="M378.5,417.1h10.8v-3.3h-10.8V417.1z"/>
	<path class="st19" d="M378.5,427.8h10.8v-3.3h-10.8V427.8z"/>
	<path class="st19" d="M378.5,438.6h10.8v-3.3h-10.8V438.6z"/>
	<path class="st19" d="M378.5,449.4h10.8v-3.3h-10.8V449.4z"/>
	<path class="st21" d="M400.6,244.4h42v-3.3h-42V244.4z"/>
	<path class="st21" d="M444.3,364.8h42v-3.3h-42V364.8z"/>
	<path class="st21" d="M444.3,352.3h15.9V349h-15.9V352.3z"/>
	<path class="st24" d="M400.6,255.2h15.9v-3.3h-15.9V255.2z"/>
	<path class="st24" d="M400.6,266h23.5v-3.3h-23.5V266z"/>
	<path class="st19" d="M428.2,276.8h47.2v-3.3h-47.2V276.8z"/>
	<path class="st19" d="M567.6,276.8h-68.3v-3.3h68.3V276.8"/>
	<path class="st19" d="M492.1,276.8h-12.1v-3.3h12.1V276.8"/>
	<path class="st19" d="M438.6,296.7h47.2v-3.3h-47.2V296.7z"/>
	<path class="st19" d="M577.9,296.7h-68.3v-3.3h68.3V296.7"/>
	<path class="st19" d="M502.4,296.7h-12.1v-3.3h12.1V296.7"/>
	<path class="st19" d="M438.6,285.9h30.1v-3.3h-30.1V285.9z"/>
	<path class="st19" d="M474.1,282.6v3.3h11.7v-3.3H474.1"/>
	<path class="st19" d="M533.4,285.9h-23.8v-3.3h23.8V285.9"/>
	<path class="st19" d="M502.4,285.9h-12.1v-3.3h12.1V285.9"/>
	<path class="st19" d="M477.1,401.7h30.1v-3.3h-30.1V401.7z"/>
	<path class="st19" d="M512.6,401.7h11.7v-3.3h-11.7V401.7z"/>
	<path class="st19" d="M548.1,401.7h23.8v-3.3h-23.8V401.7z"/>
	<path class="st19" d="M528.8,401.7h12.1v-3.3h-12.1V401.7z"/>
	<path class="st25" d="M428.2,266h8.1v-3.3h-8.1V266z"/>
	<path class="st24" d="M444.6,373.9h15.9v-3.3h-15.9V373.9z"/>
	<path class="st24" d="M444.6,384.7h23.5v-3.3h-23.5V384.7z"/>
	<path class="st25" d="M472.1,384.7h8.1v-3.3h-8.1V384.7z"/>
	<path class="st24" d="M444.6,431.6h15.9v-3.3h-15.9V431.6z"/>
	<path class="st24" d="M444.6,442.4h23.5v-3.3h-23.5V442.4z"/>
	<path class="st25" d="M472.1,442.4h8.1v-3.3h-8.1V442.4z"/>
	<path class="st24" d="M400.6,319.9h23.5v-3.3h-23.5V319.9z"/>
	<path class="st25" d="M428.2,319.9h8.1v-3.3h-8.1V319.9z"/>
	<path class="st22" d="M459.4,244.4h-10.8v-3.3h10.8V244.4"/>
	<path class="st22" d="M428.2,334h45.9v-3.3h-45.9V334z"/>
	<path class="st19" d="M438.6,309.2h69.2v-3.3h-69.2V309.2z"/>
	<path class="st19" d="M564.9,309.2h-53.1v-3.3h53.1V309.2"/>
	<path class="st19" d="M477.1,413.8h40.2v-3.3h-40.2V413.8z"/>
	<path class="st19" d="M521.4,413.8h56.4v-3.3h-56.4V413.8z"/>
	<path class="st19" d="M477.1,424.6h17.4v-3.3h-17.4V424.6z"/>
	<path class="st19" d="M499.6,424.6h17.7v-3.3h-17.7V424.6z"/>
	<path class="st19" d="M567.6,424.6h10.2v-3.3h-10.2V424.6z"/>
	<path class="st19" d="M521.4,424.6h42.3v-3.3h-42.3V424.6z"/>
	<path class="st26" d="M734.3,481.1H338c-4.3,0-7.8-3.5-7.8-7.8V203.8c0-2.2,0.9-4.1,2.3-5.5l22.7,15.6h-5.7c-1.4,0-2.6,1.1-2.6,2.6
		v244.2c0,1.4,1.1,2.6,2.6,2.6H718l22.2,15.2c0,0-0.1,0.1-0.1,0.1c-1.4,1.5-3.4,2.5-5.6,2.6c0,0,0,0,0,0s0,0,0,0s0,0,0,0
		c0,0,0,0,0,0c0,0,0,0,0,0c0,0,0,0,0,0s0,0,0,0c0,0,0,0,0,0c0,0,0,0,0,0s0,0,0,0S734.4,481.1,734.3,481.1
		C734.4,481.1,734.4,481.1,734.3,481.1C734.4,481.1,734.4,481.1,734.3,481.1C734.3,481.1,734.3,481.1,734.3,481.1
		C734.3,481.1,734.3,481.1,734.3,481.1C734.3,481.1,734.3,481.1,734.3,481.1C734.3,481.1,734.3,481.1,734.3,481.1"/>
	<path class="st27" d="M718,463.2H349.4c-1.4,0-2.6-1.1-2.6-2.6V216.4c0-1.4,1.1-2.6,2.6-2.6h5.7l18.5,12.7v9.4h13.6l0.1,0.1h-13.8
		v219.4h324.9v-5.6L718,463.2"/>
	<path class="st28" d="M698.6,455.4h-304V240.9l16,11h-9.9v3.3h14.7l12.9,8.8v2h2.8l10.9,7.5h-13.7v3.3h18.5l8.5,5.8h-16.7v3.3h21.5
		l10.9,7.5h-32.4v3.3h37.2l13.3,9.1h-50.5v3.3h55.3l204.7,140.7V455.4 M472.1,439.1v3.3h8.1v-3.3H472.1 M444.6,439.1v3.3h23.5v-3.3
		H444.6 M444.6,428.3v3.3h15.9v-3.3H444.6 M567.6,421.2v3.3h10.2v-3.3H567.6 M521.4,421.2v3.3h42.3v-3.3H521.4 M499.6,421.2v3.3
		h17.7v-3.3H499.6 M477.1,421.2v3.3h17.4v-3.3H477.1 M521.4,410.5v3.3h56.4v-3.3H521.4 M477.1,410.5v3.3h40.2v-3.3H477.1
		 M548.1,398.4v3.3h23.8v-3.3H548.1 M528.8,398.4v3.3h12.1v-3.3H528.8 M512.6,398.4v3.3h11.7v-3.3H512.6 M477.1,398.4v3.3h30.1v-3.3
		H477.1 M472.1,381.4v3.3h8.1v-3.3H472.1 M444.6,381.4v3.3h23.5v-3.3H444.6 M444.6,370.6v3.3h15.9v-3.3H444.6 M444.3,361.5v3.3h42
		v-3.3H444.3 M444.3,349v3.3h15.9V349H444.3 M428.2,330.7v3.3h45.9v-3.3H428.2 M428.2,316.6v3.3h8.1v-3.3H428.2 M400.6,316.6v3.3
		h23.5v-3.3H400.6 M400.6,262.7v3.3h23.5v-3.3H400.6 M393.5,455.4h-19.8V236h13.8l6.1,4.2V455.4 M378.5,446.1v3.3h10.8v-3.3H378.5
		 M378.5,435.3v3.3h10.8v-3.3H378.5 M378.5,424.6v3.3h10.8v-3.3H378.5 M378.5,413.8v3.3h10.8v-3.3H378.5 M378.5,403v3.3h10.8V403
		H378.5 M378.5,392.2v3.3h10.8v-3.3H378.5 M378.5,381.4v3.3h10.8v-3.3H378.5 M378.5,370.6v3.3h10.8v-3.3H378.5 M378.5,359.8v3.3
		h10.8v-3.3H378.5 M378.5,349v3.3h10.8V349H378.5 M378.5,338.2v3.3h10.8v-3.3H378.5 M378.5,327.4v3.3h10.8v-3.3H378.5 M378.5,316.6
		v3.3h10.8v-3.3H378.5 M378.5,305.9v3.3h10.8v-3.3H378.5 M378.5,295.1v3.3h10.8v-3.3H378.5 M378.5,284.3v3.3h10.8v-3.3H378.5
		 M378.5,273.5v3.3h10.8v-3.3H378.5 M378.5,262.7v3.3h10.8v-3.3H378.5 M378.5,251.9v3.3h10.8v-3.3H378.5 M378.5,241.1v3.3h10.8v-3.3
		H378.5"/>
	<path class="st19" d="M394.6,455.4h-1.1V240.2l1.1,0.8V455.4"/>
	<path class="st29" d="M387.3,235.9h-13.6v-9.4L387.3,235.9"/>
	<path class="st19" d="M378.5,244.4h10.8v-3.3h-10.8V244.4z"/>
	<path class="st19" d="M378.5,255.2h10.8v-3.3h-10.8V255.2z"/>
	<path class="st19" d="M378.5,266h10.8v-3.3h-10.8V266z"/>
	<path class="st19" d="M378.5,276.8h10.8v-3.3h-10.8V276.8z"/>
	<path class="st19" d="M378.5,287.6h10.8v-3.3h-10.8V287.6z"/>
	<path class="st19" d="M378.5,298.4h10.8v-3.3h-10.8V298.4z"/>
	<path class="st19" d="M378.5,309.2h10.8v-3.3h-10.8V309.2z"/>
	<path class="st19" d="M378.5,319.9h10.8v-3.3h-10.8V319.9z"/>
	<path class="st19" d="M378.5,330.7h10.8v-3.3h-10.8V330.7z"/>
	<path class="st19" d="M378.5,341.5h10.8v-3.3h-10.8V341.5z"/>
	<path class="st19" d="M378.5,352.3h10.8V349h-10.8V352.3z"/>
	<path class="st19" d="M378.5,363.1h10.8v-3.3h-10.8V363.1z"/>
	<path class="st19" d="M378.5,373.9h10.8v-3.3h-10.8V373.9z"/>
	<path class="st19" d="M378.5,384.7h10.8v-3.3h-10.8V384.7z"/>
	<path class="st19" d="M378.5,395.5h10.8v-3.3h-10.8V395.5z"/>
	<path class="st19" d="M378.5,406.3h10.8V403h-10.8V406.3z"/>
	<path class="st19" d="M378.5,417.1h10.8v-3.3h-10.8V417.1z"/>
	<path class="st19" d="M378.5,427.8h10.8v-3.3h-10.8V427.8z"/>
	<path class="st19" d="M378.5,438.6h10.8v-3.3h-10.8V438.6z"/>
	<path class="st19" d="M378.5,449.4h10.8v-3.3h-10.8V449.4z"/>
	<path class="st30" d="M444.3,364.8h42v-3.3h-42V364.8z"/>
	<path class="st30" d="M444.3,352.3h15.9V349h-15.9V352.3z"/>
	<path class="st31" d="M415.4,255.2h-14.7v-3.3h9.9L415.4,255.2"/>
	<path class="st31" d="M400.6,266h23.5v-3.3h-23.5V266z"/>
	<path class="st19" d="M446.8,276.8h-18.5v-3.3H442L446.8,276.8"/>
	<path class="st19" d="M475.8,296.7h-37.2v-3.3H471L475.8,296.7"/>
	<path class="st19" d="M460.1,285.9h-21.5v-3.3h16.7L460.1,285.9"/>
	<path class="st19" d="M477.1,401.7h30.1v-3.3h-30.1V401.7z"/>
	<path class="st19" d="M512.6,401.7h11.7v-3.3h-11.7V401.7z"/>
	<path class="st19" d="M548.1,401.7h23.8v-3.3h-23.8V401.7z"/>
	<path class="st19" d="M528.8,401.7h12.1v-3.3h-12.1V401.7z"/>
	<path class="st32" d="M431.1,266h-2.8v-2L431.1,266"/>
	<path class="st31" d="M444.6,373.9h15.9v-3.3h-15.9V373.9z"/>
	<path class="st31" d="M444.6,384.7h23.5v-3.3h-23.5V384.7z"/>
	<path class="st32" d="M472.1,384.7h8.1v-3.3h-8.1V384.7z"/>
	<path class="st31" d="M444.6,431.6h15.9v-3.3h-15.9V431.6z"/>
	<path class="st31" d="M444.6,442.4h23.5v-3.3h-23.5V442.4z"/>
	<path class="st32" d="M472.1,442.4h8.1v-3.3h-8.1V442.4z"/>
	<path class="st31" d="M400.6,319.9h23.5v-3.3h-23.5V319.9z"/>
	<path class="st32" d="M428.2,319.9h8.1v-3.3h-8.1V319.9z"/>
	<path class="st33" d="M428.2,334h45.9v-3.3h-45.9V334z"/>
	<path class="st19" d="M493.9,309.2h-55.3v-3.3h50.5L493.9,309.2"/>
	<path class="st19" d="M477.1,413.8h40.2v-3.3h-40.2V413.8z"/>
	<path class="st19" d="M521.4,413.8h56.4v-3.3h-56.4V413.8z"/>
	<path class="st19" d="M477.1,424.6h17.4v-3.3h-17.4V424.6z"/>
	<path class="st19" d="M499.6,424.6h17.7v-3.3h-17.7V424.6z"/>
	<path class="st19" d="M567.6,424.6h10.2v-3.3h-10.2V424.6z"/>
	<path class="st19" d="M521.4,424.6h42.3v-3.3h-42.3V424.6z"/>
	<path class="st11" d="M335.2,524.7c-3.3-6.1-9.4-10.3-16.3-11.4c-6.4-1-15.4-2.2-25.8-3.4c0.7-5.2,0.4-11-0.9-17.3
		c0.3-4.4,4.6-12.8,12-23.2c2.6-3.6,3.7-8,3.2-12.5l-1.9-16.5c0.6-0.3,1.2-0.5,1.7-0.9c5.5-3.1,8.8-9,8.8-15.4
		c0-3.7-1.1-7.3-3.2-10.3c-0.3-0.5-0.8-1.1-1.5-1.9c0,0-0.1-0.1,0-0.1c0,0,0-0.1,0.1-0.1c0.9-0.2,1.5-1,1.6-1.9c0-0.2,0-0.9-0.3-2.3
		c-0.6-3-3.1-5.2-6.1-5.7c-1.4-0.2-2.9-0.3-4.4-0.3l-0.2,0c-2.4,0-4.4,0.2-5.3,0.4c-0.6-0.2-1.1-0.3-1.6-0.5
		c-0.7-0.2-1.5-0.4-2.2-0.5c-1.5-0.3-3-0.3-4.5,0c-0.7,0.1-1.5,0.3-2.2,0.5c-0.5,0.1-1.1,0.3-1.6,0.5c-0.9-0.1-2.9-0.4-5.3-0.4
		l-0.2,0c-1.5,0-3,0.1-4.4,0.3c-3,0.4-5.5,2.7-6.1,5.7c-0.3,1.3-0.3,2.1-0.3,2.3c0.1,0.9,0.7,1.7,1.6,1.9c0,0,0,0,0,0
		c0,0,0,0.1,0,0.2c-0.5,0.6-1,1.2-1.4,1.9c-2.1,3-3.2,6.6-3.2,10.3c0,0.6,0,1.2,0.1,1.8l-1.4,2.3c-1.4,2.3-4,3.6-6.7,3.5
		c-5.5-0.2-10.7,1.7-14.8,5.4c-7.4,6.6-18.4,17.8-29,33.5c-7.8,11.6-9.2,26.2-3.6,39.1c1.4,3.3,2.9,6.7,4.4,10.2
		c1.9,4.5,5.7,8,10.3,9.4c4.7,1.4,12.7,3.1,24,3.1c17.5,0,67.6-0.3,82.5-0.4c1.8,0,3.4-0.9,4.3-2.5C336,528.1,336,526.2,335.2,524.7
		z M271.7,416.4c0.4-0.6,0.8-1.1,1.2-1.6c0.9-1.1,1.2-2.6,0.9-3.9c-0.2-0.9-0.7-1.6-1.3-2.2c0,0,0,0,0-0.1c0.3-1.2,1.3-2.2,2.5-2.4
		c1.2-0.2,2.5-0.3,3.8-0.3l0.2,0c2.9,0,5.1,0.4,5.1,0.4c0.4,0.1,0.7,0,1.1-0.1c0.6-0.2,1.2-0.4,1.9-0.6c0.6-0.2,1.3-0.3,1.9-0.4
		c1-0.2,2-0.2,2.9,0c0.6,0.1,1.3,0.3,1.9,0.4c0.6,0.2,1.2,0.3,1.9,0.6c0.3,0.1,0.7,0.1,1.1,0.1c0,0,2.2-0.4,5.1-0.4l0.2,0
		c1.3,0,2.6,0.1,3.8,0.3c1.2,0.2,2.3,1.1,2.5,2.4c0,0,0,0,0,0.1c-0.7,0.6-1.2,1.4-1.4,2.3c-0.3,1.4,0,2.8,0.9,3.8
		c0.6,0.7,1,1.2,1.3,1.6c1.6,2.3,2.5,5,2.5,7.8c0,4.8-2.6,9.3-6.7,11.7c-1.5,0.9-3,1.4-4.6,1.5c-1.8,0.1-3.5,0.8-5.2,1.4
		c-1.7,0.6-3.3,1.2-4.8,1.2c-1.5,0-3.1-0.6-4.8-1.2c-1.7-0.6-3.4-1.2-5.2-1.4c-1.6-0.1-3.1-0.6-4.6-1.5c-4.1-2.4-6.7-6.9-6.7-11.7
		C269.3,421.4,270.1,418.7,271.7,416.4z M331.4,527.5c-0.1,0.1-0.3,0.4-0.6,0.4c-14.9,0.1-65,0.4-82.5,0.4
		c-10.8,0-18.4-1.6-22.8-2.9c-3.4-1-6.2-3.6-7.6-6.9c-1.5-3.5-2.9-7-4.4-10.2c-5-11.5-3.8-24.6,3.2-35
		c10.3-15.3,21.1-26.2,28.3-32.7c3.2-2.9,7.4-4.4,11.8-4.3c3.8,0.1,7.4-1.6,9.7-4.6c1.5,3.3,4,6.2,7.3,8c2,1.2,4.2,1.9,6.4,2.1
		c1.2,0.1,2.6,0.6,4.1,1.1c2,0.7,4,1.5,6.2,1.5c0,0,0,0,0,0c0,0,0,0,0,0c2.2,0,4.2-0.8,6.2-1.5c1.5-0.5,2.9-1,4.1-1.1
		c0.2,0,0.3,0,0.5-0.1l1.8,15.9c0.4,3.4-0.5,6.7-2.5,9.5c-5.6,7.8-8.8,13.6-10.7,17.9c-1.9-5.6-4.4-11.6-7.8-17.9
		c-6.9-13.1-14.5-22.7-14.8-23.1c-0.7-0.9-2.1-1.1-3-0.3c-0.9,0.7-1.1,2.1-0.3,3c0.3,0.4,28.6,36.4,24.7,62.9
		c-13.9-1.4-29.9-2.5-45.8-2.5c-1.2,0-2.1,1-2.1,2.1s1,2.1,2.1,2.1c29.6,0,59.9,4,75.3,6.3c5.5,0.8,10.5,4.3,13.2,9.2
		C331.6,527.1,331.5,527.3,331.4,527.5z"/>
</g>
<g id="Capa_19">
	<g>
		<path class="st34" d="M1809.1,1207.1c-11.8,17.4-29.8,26.2-50.3,27v0.2h-74.3c-5.9,0-10.6-3.9-10.6-8.7c0-7.7,4.2-14.9,11.4-19.8
			c3.3-2.3,7.2-3.8,11.3-4.8c-5.2-9.1-8.9-20.2-10.4-33.3l-20.2,63.1c-0.7,2.1-2.7,3.6-5,3.6h-34.6c-6.7,0-12.2-3.9-12.2-8.7
			c0-7.7,4.8-14.9,13.1-19.8c4.9-2.9,10.7-4.6,16.8-5.3l8.8-32.5l4.3-72.1c-16.7-17.6-27.2-37.4-20.2-74.7
			c3.2-17.2-8.7-25.2-11-26.5c-2-0.7-4-1.5-6.1-2.1c-3.1-0.9-6.3-2.3-9.3-4.3c-1.8-1.2-8.3-5.9-13.8-16.3c-1.2-2.3-2.1-4.8-1.4-7.4
			c0.8-2.5,2.7-4.5,5.1-5.2c8.3-2.3,15.3-8.4,19.1-16.5c0.7-1.4,1.4-2.7,2.1-4c3.3-5.5,8.3-9.6,14-11.9c5.4-2.1,9.1-5.2,12.6-8.2
			c0.4-7.3,1.9-27.5,7.7-41.3c0.5-1.1,1.4-1.9,2.5-2.1c1.2-0.2,2.3,0.1,3.2,0.9c5.6,5.5,16.3,18.2,21.3,38.4
			c22,10,28.5,31.4,28.5,46.3c0,4.6-1,8.9-2.3,13.1c11,5.1,21.5,16,31.3,33.4l50.7,61l0,0c19.2,17.6,32.1,49,32.1,85
			c0,7.5-0.7,14.4-1.7,20.8c0.2,0.3,0.6,0.5,0.8,0.9c16.6,27.4,14.7,24.4,18.6,32.7c3.6,9.6,4.6,19.4,3.4,28.5h-27.5
			C1818.7,1228.7,1817.2,1219,1809.1,1207.1z"/>
	</g>
	<path class="st35" d="M698.7,526.8l48.8-28.2l75.2,4.7c11.2,0.7,18.7-11.3,13-21.1l-15-26c36.6-21.2,46.9-59.7,25.7-96.3L804,286.8
		c-21.2-36.6-59.7-46.9-96.3-25.7l-122,70.6c-36.6,21.2-46.9,59.7-25.7,96.3l42.3,73.2C623.6,537.7,662.1,548,698.7,526.8z"/>
	<path class="st35" d="M1647.7,541l-50.7-24.4l-74.5,10.5c-11,1.6-19.5-9.8-14.6-20l13-27.1c-38-18.3-51.2-55.9-32.9-94l36.6-76.2
		c18.3-38.1,55.9-51.3,93.9-33.1l126.7,60.9c38,18.3,51.2,55.9,32.9,94l-36.6,76.2C1723.3,546.1,1685.7,559.3,1647.7,541z"/>
	<path class="st35" d="M1068.2,284.7v-85.2c0-39.3,31.9-71.1,71.3-71.1h142.5c39.3,0,71.3,31.8,71.3,71.1v99.5
		c0,39.2-31.9,71-71.3,71h-21.4c-4.4,0-8.7,2.1-11.4,5.7l-21.4,28.4c-9.4,12.5-24.8,12.5-34.2,0l-21.4-28.4
		c-2.3-3.1-7.4-5.7-11.4-5.7h-21.4c-39.3,0-71.3-31.8-71.3-71V284.7z"/>
	<path class="st3" d="M1223.9,181.7l-38.3,143.1l11.9,3.2l38.3-143.1L1223.9,181.7L1223.9,181.7z M1168.5,215.5l-32.6,30.4
		c-4.9,4.6-5.2,12.3-0.7,17.2c0.2,0.2,0.4,0.5,0.7,0.7l32,30.4l9.1-8.4l-32.7-31l32.7-30.6L1168.5,215.5L1168.5,215.5z
		 M1285.4,245.9l-32.5-30.4l-8.5,8.9l32.6,30.4l-32.6,30.6l9,8.4l32-30c4.9-4.6,5.2-12.3,0.6-17.3
		C1285.9,246.3,1285.7,246.1,1285.4,245.9L1285.4,245.9z"/>
	<path class="st36" d="M658.4,336.8c-2.5-1.1-5.4-0.5-7.3,1.4l-9.9,9.9c-1.9,1.9-2.5,4.8-1.4,7.3c2.1,4.9,4.1,9.9,6.1,14.9
		c3.3,8.6,7.1,19,9.1,27c2.1,8.3,3.1,16.8,5.3,25c2.3,8.3,6,16.3,14,24.3c11.2,11.2,24.9,13,35.3,12.2c5.8-0.4,10.7-1.7,13.9-2.7
		l5.6,5.6c5.2,5.2,13.5,5.2,18.7,0l15.4-15.4c5.2-5.2,5.2-13.5,0-18.7l-4-4c1-3.5,2.3-9,2.8-15.5c0.7-11-1-25.6-12.2-36.9
		c-8-8-15.9-11.7-24.3-14c-8.3-2.3-16.8-3.3-25-5.3c-8-2-18.4-5.7-27-9.1C668.4,341,663.4,338.9,658.4,336.8z M722.6,442.6
		c2.5-1.1,5.4-0.5,7.3,1.4l8.5,8.5l15.4-15.4l-6.9-6.9c-1.9-1.9-2.4-4.6-1.5-7.1l0,0c1.9-5,2.9-10.5,3.3-15.8
		c0.6-9.2-1-19.2-8.4-26.7c-6-6-11.9-8.8-18.4-10.6c-8.1-2.2-16.6-3.2-24.7-5.2c-9.4-2.4-21.3-6.7-30.2-10.2l29.9,29.9
		c2.6-1.2,5.5-1.9,8.5-1.9c10.9,0,19.8,8.9,19.8,19.8c0,10.9-8.9,19.8-19.8,19.8c-10.9,0-19.8-8.9-19.8-19.8c0-3.1,0.7-6,1.9-8.5
		l-29.9-29.9c3.5,8.9,7.9,20.8,10.2,30.2c2,8.2,3,16.6,5.2,24.7c1.8,6.6,4.5,12.4,10.6,18.4c7.5,7.5,16.9,9,25,8.4
		C713.3,445.4,718.2,444.4,722.6,442.6z M698.8,402.4c0,3.6,3,6.6,6.6,6.6s6.6-3,6.6-6.6c0-3.6-3-6.6-6.6-6.6
		C701.7,395.8,698.8,398.7,698.8,402.4z"/>
	<g id="layer1" transform="translate(0,-288.53332)">
		<path id="rect959" class="st34" d="M266.3,1080.9c-9.3,0-16.8,7.5-16.8,16.8v335.7c0,9.3,7.5,16.8,16.8,16.8h469.9
			c9.3,0,16.8-7.5,16.8-16.8v-335.7c0-9.3-7.5-16.8-16.8-16.8H266.3z M501.3,1383c9.3,0,16.8,7.5,16.8,16.8s-7.5,16.8-16.8,16.8
			s-16.8-7.5-16.8-16.8S492,1383,501.3,1383z M484.5,1466.9v16.8h-52c-22.4,1.2-20.7,34.8,1.7,33.6h134.2c22.4,0,22.4-33.6,0-33.6
			h-50.3v-16.8H484.5z"/>
	</g>
	<g>
		<g>
			<path class="st3" d="M1718.1,360.1c-19.3-7.9-41.3,1.4-49.2,20.7c-1.2,2.9-1.9,5.8-2.4,8.7l-37.4-25l-58.4,5.8l0.1,1l-0.4-0.3
				l-31.9,78.1l58.4,41.7l60.9-7l23.8-58.3c2.4,1.8,5.1,3.3,7.9,4.5c19.3,7.9,41.4-1.4,49.2-20.7
				C1746.7,390.1,1737.4,368,1718.1,360.1z M1595.6,484.9l-52.5-37l29.1-71.1l52.9,36.1L1595.6,484.9z M1629.3,411.3l-54.6-37.3
				l53.4-5.3l38,25.4c-0.1,4.5,0.6,9,2,13.2L1629.3,411.3z M1684,403.3c-3.5-1.4-6.1-3.6-7.2-5.3l2.9-3.6c0.8,1.1,3.1,3.3,5.8,4.4
				c4.1,1.7,6.8,0,7.6-2.2c1.4-3.4-1.2-6.1-4.5-7.5l-2.5-1l1.6-4l2.4,1c2.5,1,6.1,1.2,7.3-1.7c0.8-1.9,0-4.2-3.1-5.4
				c-2.3-1-5.1-0.9-6.6-0.6l0.4-4.4c2.1-0.5,5.7-0.2,9.1,1.2c5.9,2.4,7.6,6.9,6.1,10.6c-1.2,3-4,4.7-8,4.5l0,0.1
				c3.2,2,5,5.8,3.4,9.7C1696.7,404,1691.1,406.2,1684,403.3z M1721.6,413.7c-4,1.5-9.3,0.9-15.1-1.4c-3.2-1.3-5.5-2.4-7.1-3.4
				l11.9-29.2c2.5,0.6,5.7,1.6,8.9,2.9c5.5,2.3,8.9,5,10.7,8.4c1.9,3.5,2.2,7.7,0.2,12.8C1728.8,409.1,1725.4,412.3,1721.6,413.7z"
				/>
			<path class="st3" d="M1718.9,387.1c-1.7-0.7-3-1.1-3.8-1.2l-8.7,21.2c0.7,0.4,1.8,0.9,2.9,1.4c7,2.9,12.8,0.8,15.9-6.8
				C1727.9,395.1,1725.7,389.8,1718.9,387.1z"/>
		</g>
	</g>
</g>
<g id="Capa_2" class="st0">
	<g class="st11">
		<defs>
			<rect id="SVGID_5_" x="266.5" y="289.8" width="203" height="230.4"/>
		</defs>
		<clipPath id="SVGID_6_">
			<use xlink:href="#SVGID_5_"  style="overflow:visible;"/>
		</clipPath>
		<g class="st37">
			<path class="st38" d="M469.5,290.4L451,497.2l-83.1,23l-82.8-23l-18.5-206.8H469.5L469.5,290.4L469.5,290.4z"/>
		</g>
	</g>
	<path class="st39" d="M368.1,502.6l67.1-18.6L451,307.3l-82.9,0V502.6z"/>
	<path class="st40" d="M332.2,358.1h35.9v-25.4h-63.7l0.6,6.8l6.2,69.9h56.8V384h-33.6L332.2,358.1z"/>
	<path class="st40" d="M337.9,422.1h-25.5l3.6,39.8l52,14.4l0.1,0v-26.4l-0.1,0l-28.3-7.6L337.9,422.1z"/>
	<g class="st11">
		<defs>
			<rect id="SVGID_7_" x="284.3" y="234.2" width="40" height="39.6"/>
		</defs>
		<clipPath id="SVGID_8_">
			<use xlink:href="#SVGID_7_"  style="overflow:visible;"/>
		</clipPath>
		<g class="st41">
			<path d="M285.5,234.2h12.9V247h11.8v-12.7h12.9v38.6h-12.9v-12.9h-11.8v12.9h-12.9V234.2z"/>
		</g>
	</g>
	<g class="st11">
		<defs>
			<rect id="SVGID_9_" x="328.3" y="234.2" width="37.3" height="39.6"/>
		</defs>
		<clipPath id="SVGID_10_">
			<use xlink:href="#SVGID_9_"  style="overflow:visible;"/>
		</clipPath>
		<g class="st42">
			<path d="M340.1,247h-11.4v-12.8h35.6V247H353v25.8h-12.9V247z"/>
		</g>
	</g>
	<g class="st11">
		<defs>
			<rect id="SVGID_11_" x="369.6" y="234.2" width="44" height="39.6"/>
		</defs>
		<clipPath id="SVGID_12_">
			<use xlink:href="#SVGID_11_"  style="overflow:visible;"/>
		</clipPath>
		<g class="st43">
			<path d="M370.1,234.2h13.4l8.3,13.6l8.3-13.6h13.5v38.6h-12.8v-19.1l-8.9,13.7h-0.2l-8.9-13.7v19.1h-12.6V234.2z"/>
		</g>
	</g>
	<g class="st11">
		<defs>
			<rect id="SVGID_13_" x="419" y="234.2" width="33.3" height="39.6"/>
		</defs>
		<clipPath id="SVGID_14_">
			<use xlink:href="#SVGID_13_"  style="overflow:visible;"/>
		</clipPath>
		<g class="st44">
			<path d="M419.9,234.2h12.9V260H451v12.7h-31.1V234.2z"/>
		</g>
	</g>
	<path class="st19" d="M368,409.4h31.3l-2.9,32.9l-28.3,7.6v26.4l52-14.4l0.4-4.3l6-66.8l0.6-6.8h-59V409.4z"/>
	<path class="st19" d="M368,358L368,358l61.3,0.1l0.5-5.7l1.2-12.9l0.6-6.8H368V358z"/>
	<g class="st11">
		<defs>
			<rect id="SVGID_15_" x="266.5" y="672.5" width="208" height="235.9"/>
		</defs>
		<clipPath id="SVGID_16_">
			<use xlink:href="#SVGID_15_"  style="overflow:visible;"/>
		</clipPath>
		<g class="st45">
			<path class="st46" d="M370.5,908.4l-84.9-23.5L266.7,673h207.8l-18.9,211.8L370.5,908.4L370.5,908.4z"/>
		</g>
	</g>
	<path class="st47" d="M439.4,871.4l16.2-181h-84.9v200.1L439.4,871.4z"/>
	<path class="st40" d="M310,768.9l2.3,26h58.2v-26H310z"/>
	<path class="st40" d="M305.4,716.3l2.4,26h62.9v-26H305.4z"/>
	<path class="st40" d="M370.6,836.4l-0.1,0l-29-7.8l-1.9-20.7h-26.1l3.6,40.8l53.3,14.8l0.1,0V836.4z"/>
	<g class="st11">
		<defs>
			<rect id="SVGID_17_" x="315" y="615.4" width="33.3" height="39.7"/>
		</defs>
		<clipPath id="SVGID_18_">
			<use xlink:href="#SVGID_17_"  style="overflow:visible;"/>
		</clipPath>
		<g class="st48">
			<path d="M315.6,615.4h31.5v13.2h-18.3v13.2h18.3v13.2h-31.5V615.4z"/>
		</g>
	</g>
	<g class="st11">
		<defs>
			<rect id="SVGID_19_" x="352.3" y="615.4" width="33.3" height="41.1"/>
		</defs>
		<clipPath id="SVGID_20_">
			<use xlink:href="#SVGID_19_"  style="overflow:visible;"/>
		</clipPath>
		<g class="st49">
			<path d="M353.4,615.4h31.5v11.4h-18.3v2.3h18.3v26.3h-31.5v-12h18.3v-2.3h-18.3V615.4z"/>
		</g>
	</g>
	<g class="st11">
		<defs>
			<rect id="SVGID_21_" x="391" y="615.4" width="32" height="41.1"/>
		</defs>
		<clipPath id="SVGID_22_">
			<use xlink:href="#SVGID_21_"  style="overflow:visible;"/>
		</clipPath>
		<g class="st50">
			<path d="M391.2,615.4h31.5v11.4h-18.3v2.3h18.3v26.3h-31.5v-12h18.3v-2.3h-18.3V615.4z"/>
		</g>
	</g>
	<path class="st19" d="M431,768.9l4.7-52.6h-65.2v26h36.7l-2.4,26.6h-34.3v26h32l-3,33.7l-29,7.8v27l53.3-14.8l0.4-4.4l6.1-68.4
		L431,768.9z"/>
	<g class="st11">
		<defs>
			<rect id="SVGID_23_" x="1752.8" y="205.5" width="222" height="222"/>
		</defs>
		<clipPath id="SVGID_24_">
			<use xlink:href="#SVGID_23_"  style="overflow:visible;"/>
		</clipPath>
		<g class="st51">
			<path class="st52" d="M1752.8,205.5h222v222h-222V205.5z"/>
		</g>
	</g>
	<path class="st11" d="M1811.2,391l17-10.3c3.3,5.8,6.3,10.7,13.4,10.7c6.8,0,11.2-2.7,11.2-13.1v-70.9h20.9v71.2
		c0,21.6-12.7,31.4-31.1,31.4C1825.8,410.1,1816.1,401.5,1811.2,391"/>
	<path class="st11" d="M1885,388.8l17-9.8c4.5,7.3,10.3,12.7,20.6,12.7c8.6,0,14.2-4.3,14.2-10.3c0-7.2-5.7-9.7-15.2-13.9l-5.2-2.2
		c-15.1-6.4-25-14.4-25-31.4c0-15.6,11.9-27.6,30.6-27.6c13.3,0,22.8,4.6,29.7,16.7l-16.2,10.4c-3.6-6.4-7.4-8.9-13.4-8.9
		c-6.1,0-10,3.9-10,8.9c0,6.3,3.9,8.8,12.8,12.7l5.2,2.2c17.7,7.6,27.7,15.3,27.7,32.8c0,18.8-14.8,29.1-34.6,29.1
		C1903.6,410.1,1891.1,400.9,1885,388.8"/>
</g>
</svg>
