<?xml version="1.0" encoding="utf-8"?>
<!-- Generator: Adobe Illustrator 24.0.0, SVG Export Plug-In . SVG Version: 6.00 Build 0)  -->
<svg version="1.1" id="Capa_1" xmlns="http://www.w3.org/2000/svg" xmlns:xlink="http://www.w3.org/1999/xlink" x="0px" y="0px"
	 viewBox="0 0 800 800" style="enable-background:new 0 0 800 800;" xml:space="preserve">
<style type="text/css">
	.st0{fill:#FFFFFF;}
</style>
<g>
	<path class="st0" d="M197.4,715.7c59.2,30.3,125.7,46.1,192.1,47.4c3.3,0,7.2,0,10.5,0c67.1,0,133.6-14.5,194.1-43.4
		c55.3-26.3,105.3-65.8,142.1-115.1c42.1-56.6,63.8-124.3,63.8-194.7c0-44.7,0-88.8,0-133.6c0-48.7,0-96.7,0-145.4
		c0-17.1,0-34.2,0-50.7c0-30.9-30.9-51.3-59.2-40.1l-150,62.5c-9.9,3.9-21.1,4.6-30.9,0.7C511.2,84.1,457.2,74.2,400,74.2
		s-111.2,10.5-159.9,28.9c-9.9,3.9-21.1,3.3-30.9-0.7L59.2,42C30.9,30.2,0,51.2,0,82.1c0,23,0,46.7,0,69.7c0,48,0,96.1,0,144.7
		c0,40.8,0,80.9,0,121.7c0,65.1,21.1,128.3,58.6,180.9C94.1,648.6,142.8,688.1,197.4,715.7z M546.1,411.1
		c36.2,0,65.8,29.6,65.8,65.8c0,36.2-29.6,65.8-65.8,65.8s-65.8-29.6-65.8-65.8C480.3,440,509.9,411.1,546.1,411.1z M253.9,411.1
		c36.2,0,65.8,29.6,65.8,65.8c0,36.2-29.6,65.8-65.8,65.8s-65.8-29.6-65.8-65.8C188.2,440,217.8,411.1,253.9,411.1z"/>
</g>
</svg>
